<svg width="40" height="40" xmlns="http://www.w3.org/2000/svg" fill="none">
 <defs>
  <linearGradient id="paint0_linear" x1="-0.03306" y1="0.02811" x2="1.05554" y2="1.1167">
   <stop offset="0.15937" stop-color="#3BEA62"/>
   <stop offset="0.5404" stop-color="#3C99CC"/>
   <stop offset="0.93739" stop-color="#6B57FF"/>
  </linearGradient>
 </defs>
 <g>
  <title>Layer 1</title>
  <path d="m32.0845,7.94025l0,-3.94025l-8.0642,0l0,3.9896l-7.9913,0l0,-3.9896l-8.11347,0l0,3.94025l-3.91553,0l0,28.05975l12.0044,0l0,-3.9955c0.0014,-1.0588 0.423,-2.0737 1.1722,-2.8219c0.7492,-0.7481 1.7646,-1.1683 2.8234,-1.1683c1.0588,0 2.0743,0.4202 2.8234,1.1683c0.7492,0.7482 1.1708,1.7631 1.1722,2.8219l0,3.9955l12.0044,0l0,-28.05975l-3.9155,0z" fill="url(#paint0_linear)" id="svg_1"/>
  <text font-weight="normal" xml:space="preserve" text-anchor="start" font-family="'Caveat'" font-size="24" stroke-width="0" id="svg_2" y="22.99997" x="8.90801" fill="#000000">sw</text>
 </g>
</svg>